<?xml version="1.0" encoding="utf-8"?>
<!-- Svg Vector Icons : http://www.onlinewebfonts.com/icon -->
<!DOCTYPE svg PUBLIC "-//W3C//DTD SVG 1.1//EN" "http://www.w3.org/Graphics/SVG/1.1/DTD/svg11.dtd">
<svg version="1.1" xmlns="http://www.w3.org/2000/svg" xmlns:xlink="http://www.w3.org/1999/xlink" x="0px" y="0px" viewBox="0 0 1000 1000" enable-background="new 0 0 1000 1000" xml:space="preserve">
<metadata> Svg Vector Icons : http://www.onlinewebfonts.com/icon </metadata>
<g><g transform="translate(0.000000,512.000000) scale(0.100000,-0.100000)"><path d="M5162,5008.1c-441-76.7-837.9-372-1035.4-772.7c-103.5-210.9-140-356.6-157.2-630.8l-13.4-207.1h2872.2h2872.2l-11.5,235.8c-5.7,164.9-21.1,274.2-51.8,368.1c-124.6,395-396.9,713.3-757.4,883.9c-291.5,138-184.1,130.4-1994.1,134.2C5990.3,5021.5,5213.8,5015.8,5162,5008.1z M7587.5,4147.2c105.5-105.5,57.5-302.9-82.4-337.5c-23-5.7-343.2-9.6-709.4-5.7l-667.2,5.7l-49.9,49.9c-30.7,30.7-53.7,78.6-59.4,128.5c-9.6,70.9-3.8,86.3,57.5,147.6l67.1,67.1h694.1h694.1L7587.5,4147.2z M8406.2,4154.9c72.9-61.4,92-138.1,53.7-226.3c-28.8-70.9-111.2-128.5-184-128.5c-118.9,0-226.3,134.2-201.3,251.2c17.3,80.5,111.2,151.5,201.3,151.5C8327.6,4202.8,8367.8,4187.5,8406.2,4154.9z"/><path d="M2878.4,3982.3c-525.4-184.1-1091-548.4-1478.3-951c-140-145.7-322.1-362.4-352.8-418l-21.1-40.3h630.8H2286l63.3,178.3c140,393.1,406.5,889.7,617.4,1156.2c63.3,78.6,111.2,141.9,109.3,141.9C3072.1,4049.4,2983.9,4018.8,2878.4,3982.3z"/><path d="M3432.6,3815.5c-264.6-274.2-487-650-684.5-1160l-32.6-82.4h419.9h419.9l9.6,628.9c5.8,345.1,15.3,655.7,23,690.3c7.7,34.5,5.8,61.4-3.8,61.4C3574.4,3953.6,3505.4,3890.3,3432.6,3815.5z"/><path d="M3961.8,320.2v-2655.5h2866.5h2866.4V320.2v2655.6H6828.2H3961.8V320.2z"/><path d="M673.5,1994c-113.1-239.7-193.7-460.2-260.8-720.9c-49.9-195.6-113.1-586.7-113.1-705.6v-46h813h813l13.4,197.5c26.8,421.8,103.5,952.9,182.1,1263.6c21.1,80.5,38.3,155.3,38.3,166.8c0,15.3-210.9,21.1-701.8,21.1H757.8L673.5,1994z"/><path d="M2525.6,1926.9c-92-387.3-163-883.9-178.3-1252l-5.8-143.8l609.7-5.7l607.8-3.8V1346v824.5h-487h-487L2525.6,1926.9z"/><path d="M299.6,57.5c0-101.6,53.7-448.7,95.9-627c70.9-297.2,153.4-534.9,276.1-791.9l70.9-149.6h711.3h709.4l-11.5,44.1c-5.8,23-42.2,189.8-78.6,368.1C2008-776.6,1963.9-431.4,1937-67.1l-11.5,186h-813h-813V57.5z"/><path d="M2343.5,0c44.1-600.1,107.4-1012.4,220.5-1438l19.2-72.9h487h488.9V-696v814.9h-611.6h-611.6L2343.5,0z"/><path d="M1097.2-2051.6c226.2-299.1,619.3-659.6,966.3-883.9c266.5-172.6,734.3-391.2,947.2-442.9l57.5-13.4l-51.8,63.3c-224.3,276.1-511.9,799.5-657.7,1200.3l-72.9,195.6h-638.5h-640.4L1097.2-2051.6z"/><path d="M2784.5-2097.6c174.5-431.4,408.4-820.6,640.4-1066l132.3-140l1.9,686.4v684.5h-419.9h-419.9L2784.5-2097.6z"/><path d="M3967.5-2768.7c-23-59.4,9.6-799.5,40.3-922.3c124.6-496.6,500.4-885.8,1008.5-1045l143.8-44.1h1668.1c1539.6,0,1677.7,1.9,1792.7,34.5c487,132.3,859,490.9,1018.1,981.7c38.3,120.8,44.1,182.1,51.8,581l7.7,444.8H6839.7C4258.9-2738,3979-2741.8,3967.5-2768.7z M7006.5-3196.3c312.5-161.1,310.6-573.3-3.8-734.3c-113.1-57.5-289.5-42.2-398.8,34.5c-266.5,186-220.5,594.4,80.5,715.2C6766.9-3148.3,6929.8-3156,7006.5-3196.3z"/></g></g>
</svg>