<?xml version="1.0" encoding="utf-8"?>
<!-- Svg Vector Icons : http://www.onlinewebfonts.com/icon -->
<!DOCTYPE svg PUBLIC "-//W3C//DTD SVG 1.1//EN" "http://www.w3.org/Graphics/SVG/1.1/DTD/svg11.dtd">
<svg version="1.1" xmlns="http://www.w3.org/2000/svg" xmlns:xlink="http://www.w3.org/1999/xlink" x="0px" y="0px" viewBox="0 0 1000 1000" enable-background="new 0 0 1000 1000" xml:space="preserve">
<metadata> Svg Vector Icons : http://www.onlinewebfonts.com/icon </metadata>
<g><g transform="translate(0.000000,512.000000) scale(0.100000,-0.100000)"><path d="M791.6,5003.4c-344.6-49.8-628-344.6-677.8-702.7c-11.5-78.5-15.3-1451.3-13.4-3461.6l5.7-3331.5l42.1-105.3c99.6-241.2,268-407.8,495.9-490.1l124.5-46h2113.7h2115.7v402.1v402.1H2949.4H900.8v823.3V-683h2048.6h2048.7V-281v402.1H2949.4H900.8v823.3v823.3h3274h3274v-210.6v-210.6h402.1h402.1v1491.5c0,1441.7-1.9,1495.3-38.3,1615.9c-88.1,287.2-340.8,497.8-651,547.6C7418.2,5026.4,952.5,5026.4,791.6,5003.4z M7448.8,3395.1v-823.3h-3274h-3274v823.3v823.3h3274h3274V3395.1z"/><path d="M1322,3395.1V2993h1014.8h1014.8v402.1v402.1H2336.8H1322V3395.1z"/><path d="M5287.2,3768.5c-294.9-91.9-373.4-486.3-137.9-685.4c252.7-210.6,652.9-28.7,652.9,296.8C5802.2,3657.4,5545.7,3850.8,5287.2,3768.5z"/><path d="M6524,3770.4c-302.5-82.3-388.7-484.4-149.3-687.3c252.7-210.6,652.9-28.7,652.9,296.8C7027.6,3655.5,6788.3,3841.2,6524,3770.4z"/><path d="M1322,944.4V542.3h1014.8h1014.8v402.1v402.1H2336.8H1322V944.4z"/><path d="M5298.7,1319.7c-275.7-74.7-381-421.2-193.4-639.5c235.5-275.7,698.8-109.1,696.9,252.7C5800.3,1206.7,5562.9,1390.5,5298.7,1319.7z"/><path d="M7554.1,494.5c-279.5-53.6-576.3-206.8-798.4-409.7c-291-270-467.2-616.5-513.1-1012.8c-19.2-166.6-34.5-195.3-107.2-195.3c-21.1,0-80.4-26.8-130.2-57.4c-68.9-44-101.5-82.3-137.8-160.8l-46-103.4l3.8-1518.3c5.7-1499.2,5.7-1522.1,46-1596.8c47.9-90,162.7-178.1,268-201c42.1-11.5,802.2-19.2,1723.2-19.2c1862.9,0,1782.5-5.7,1918.5,141.7c55.5,59.3,82.3,111.1,97.7,181.9c28.7,139.8,28.7,2889.2,0,3028.9c-36.4,164.6-151.3,270-344.6,312.1c-47.9,9.6-49.8,19.2-61.3,158.9C9419-302,8946,268.5,8300.8,456.2C8080.6,519.3,7774.3,534.7,7554.1,494.5z M8071-311.6c63.2-15.3,151.3-49.8,195.3-76.6c210.6-122.5,382.9-379.1,402.1-599.3l11.5-116.8h-827.1h-827.1l13.4,91.9c30.6,212.5,122.5,390.6,273.8,522.7C7523.5-304,7797.3-238.9,8071-311.6z M9091.5-2936.6l-5.7-1030.1l-1229.2-5.7l-1231.1-3.8v1033.9v1033.9h1234.9h1234.9L9091.5-2936.6z"/><path d="M7749.4-2356.4c-275.7-74.7-381-421.2-193.4-639.5c235.5-275.7,698.8-109.1,696.9,252.7C8251-2469.4,8013.6-2285.6,7749.4-2356.4z"/><path d="M1322-1506.3v-402.1h1014.8h1014.8v402.1v402.1H2336.8H1322V-1506.3z"/></g></g>
</svg>