<?xml version="1.0" encoding="utf-8"?>
<!-- Svg Vector Icons : http://www.onlinewebfonts.com/icon -->
<!DOCTYPE svg PUBLIC "-//W3C//DTD SVG 1.1//EN" "http://www.w3.org/Graphics/SVG/1.1/DTD/svg11.dtd">
<svg version="1.1" xmlns="http://www.w3.org/2000/svg" xmlns:xlink="http://www.w3.org/1999/xlink" x="0px" y="0px" viewBox="0 0 1000 1000" enable-background="new 0 0 1000 1000" xml:space="preserve">
<metadata> Svg Vector Icons : http://www.onlinewebfonts.com/icon </metadata>
<g><path d="M518.2,176l63.9,77.7c0.2,0.2,27.8,31.8,57.7,31.8c12.6,0,23.9-5.7,33.7-17c38.6-44.7,23.1-91.5,19.6-100.2l-75.5-87.4c-32.9-41.2-60.8-75.6-171.2-70.3C340.3,15.9,231.1,173.5,230,175l-207.7,0.6v391.6l124.6,1.2L518.2,176z M752.4,548.8c-7.7-9.3-17.6-14.4-27.9-14.4c-11.9,0-23.3,6.9-31.2,18.9c-15.3,23.3-13.8,59.2,3.4,80l55.2,66.7c16.6,20,44.3,17.8,59.1-4.6c15.3-23.3,13.8-59.2-3.4-80.1L752.4,548.8z M662.6,668.7c-5.7-6.9-13.1-10.7-20.8-10.7c-8.9,0-17.4,5.2-23.3,14.1c-11.5,17.4-10.3,44.3,2.5,59.8l42.1,50.9c12.4,14.9,33.1,13.4,44.1-3.4c11.5-17.4,10.3-44.3-2.5-59.8L662.6,668.7z M583.5,768.8c-4.8-5.7-11-8.9-17.4-8.9c-7.4,0-14.6,4.3-19.5,11.8c-9.6,14.6-8.7,37.1,2.1,50.1l36.4,43.9c10.4,12.5,27.7,11.2,36.9-2.8c9.6-14.6,8.6-37-2.1-50.1L583.5,768.8z M503.1,860.6c-2.7-3.3-6.3-5-10.4-5c-6.9,0-14.3,4.8-19.7,13.1c-9,13.7-10.1,32.3-2.5,41.5l27.3,33c7.3,8.8,21.5,5,30.1-8.1c9-13.6,10.1-32.2,2.5-41.4L503.1,860.6z M728.5,175c-0.6,0,29.2,52.2-29.9,128.7c-12.2,15.8-38.6,33.7-55.2,34.6c-34.4,1.9-68.8-35.2-70.2-36.7l-59.5-63c-2.3,1.9-367.8,396.3-367.8,396.3c-3.5,3.3-29.2,30-6.6,75.3c8.3,16.6,27.3,30.3,39.4,30.3c15.1,0,28.3-12.7,28.4-12.8l175-188.2l2.5-0.4c0,0,9.2-7.9,18,6.9c8,13.3-4.8,27.1-4.8,27.1L219.8,779.8h0c0.3,0-15.2,33.3,3.1,66c8.6,15.3,26.2,29,39.2,29c9.4,0,17.2-4.1,19.8-5.6l167.3-196.3c0.6-0.3,13.7-14,25.1,3.6c8.7,13.5-2.1,30.4-2.1,30.4l-157,189.3c-1.6,2.3-18.1,35.8,5.4,69.2c0,0.1,31.4,48,64,10.1l44.7-56.2c-8.9-22.5-6.1-53.5,9.4-77c17.8-27.1,47.8-33.7,65.2-14.7l1.5-1.8c-10.9-25.5-9.4-58.6,5.9-81.7c15.1-23,41.2-28.5,61.4-15.6c-10-28-8-62.1,8.2-86.7c17.9-27.2,49.5-33,72.7-15.8c-10.7-30.6-8.5-67.7,9.1-94.5c22.7-34.5,65.3-37.7,90.7-7l58.1,72.2c3,3.7,20.8,0,20.8,0l145.4,0.3V175.6L728.5,175z"/></g>
</svg>