<?xml version="1.0" encoding="utf-8"?>
<!-- Svg Vector Icons : http://www.onlinewebfonts.com/icon -->
<!DOCTYPE svg PUBLIC "-//W3C//DTD SVG 1.1//EN" "http://www.w3.org/Graphics/SVG/1.1/DTD/svg11.dtd">
<svg version="1.1" xmlns="http://www.w3.org/2000/svg" xmlns:xlink="http://www.w3.org/1999/xlink" x="0px" y="0px" viewBox="0 0 1000 1000" enable-background="new 0 0 1000 1000" xml:space="preserve">
<metadata> Svg Vector Icons : http://www.onlinewebfonts.com/icon </metadata>
<g><path d="M380.3,713.3"/><path d="M718.1,10H282c-25.8,0-46.7,22.7-46.7,50.7v878.6c0,28,20.9,50.7,46.7,50.7h436.1c25.8,0,46.7-22.7,46.7-50.7V60.7C764.7,32.7,743.9,10,718.1,10z M500.2,939.3c-17.2,0-31.2-15.1-31.2-33.8c0-18.6,13.9-33.8,31.2-33.8c17.2,0,31.2,15.1,31.2,33.8C531.3,924.2,517.4,939.3,500.2,939.3z M718.1,821H282V111.3h436.1V821z M348.6,631.1h302.8c6.5,0,11.8-5.3,11.8-11.8c0-6.5-5.3-11.8-11.8-11.8H348.6c-6.5,0-11.8,5.3-11.8,11.8C336.8,625.8,342.1,631.1,348.6,631.1z M491.2,582.4L491.2,582.4c2.2,2.2,5.2,3.6,8.6,3.6c3.4,0,6.4-1.4,8.6-3.6l146.2-146.2c2.2-2.2,3.6-5.2,3.6-8.5c0-6.7-5.4-12.1-12.1-12.1c-3.3,0-6.4,1.4-8.5,3.5L511.8,544.8V317.2c0,0,0,0,0,0c0-6.7-5.4-12.1-12-12.1c-6.7,0-12.1,5.4-12.1,12.1c0,0,0,0,0,0v227.6L362,419.1c-2.2-2.2-5.2-3.5-8.5-3.5c-6.7,0-12.1,5.4-12.1,12c0,3.3,1.4,6.4,3.6,8.6L491.2,582.4z"/></g>
</svg>